<svg xmlns="http://www.w3.org/2000/svg" xmlns:xlink="http://www.w3.org/1999/xlink" width="147.761" height="100" viewBox="0 0 147.761 100"><defs><linearGradient id="a" x1="0.5" x2="0.5" y2="1" gradientUnits="objectBoundingBox"><stop offset="0" stop-color="#fff" stop-opacity="0.502"/><stop offset="1" stop-color="#fff" stop-opacity="0"/></linearGradient></defs><path d="M103,49.542c11.082,0,20.15-9.376,20.15-20.833S114.077,7.875,103,7.875,82.847,17.251,82.847,28.708,91.914,49.542,103,49.542Zm-53.731,0c11.082,0,20.149-9.376,20.149-20.833S60.347,7.875,49.265,7.875s-20.15,9.376-20.15,20.833S38.183,49.542,49.265,49.542Zm0,15.278C33.48,64.819,2.25,72.8,2.25,89.125v18.75H97.239V89.125C97.239,72.8,65.049,64.819,49.265,64.819ZM103,68.64a34.071,34.071,0,0,0-5.757.346c7.726,5.9,10.554,9.722,10.554,20.139v18.75h42.217V89.125C150.011,72.8,118.78,68.64,103,68.64Z" transform="translate(-2.25 -7.875)" fill="url(#a)"/></svg>