<svg xmlns="http://www.w3.org/2000/svg" width="40" height="37.647" viewBox="0 0 40 37.647"><path d="M38.808,21.176H21.36L32.98,32.8a1.18,1.18,0,0,0,1.632.05,17.61,17.61,0,0,0,5.377-10.357,1.179,1.179,0,0,0-1.181-1.312Zm-1.164-4.765A17.689,17.689,0,0,0,21.235,0,1.183,1.183,0,0,0,20,1.194V17.647H36.454a1.183,1.183,0,0,0,1.19-1.235ZM16.471,21.176V3.729a1.178,1.178,0,0,0-1.312-1.181A17.634,17.634,0,0,0,.01,20.615,17.865,17.865,0,0,0,17.87,37.645a17.51,17.51,0,0,0,9.946-3.237,1.168,1.168,0,0,0,.115-1.771Z" transform="translate(0 0)" fill="#8b8b8b"/></svg>