<svg xmlns="http://www.w3.org/2000/svg" xmlns:xlink="http://www.w3.org/1999/xlink" width="100" height="100" viewBox="0 0 100 100"><defs><linearGradient id="a" x1="0.5" y1="-0.084" x2="0.5" y2="1.055" gradientUnits="objectBoundingBox"><stop offset="0" stop-color="#fff" stop-opacity="0.502"/><stop offset="1" stop-color="#fff" stop-opacity="0"/></linearGradient></defs><path d="M86.223,40.076h-.591a4.465,4.465,0,0,0-.578-.83l-25.1-28.109a8.98,8.98,0,0,0,.178-1.743c0-4.393-3.1-7.955-6.917-7.955H45.312C41.492,1.44,38.4,5,38.4,9.395a9.153,9.153,0,0,0,.178,1.743l-25.1,28.109a4.684,4.684,0,0,0-.578.83H1.44V55.985H5.788V90.076a11.125,11.125,0,0,0,10.87,11.364H86.223a11.125,11.125,0,0,0,10.87-11.364V55.985h4.348V40.076H86.223ZM45.314,17.349H53.22l.354-.041L73.9,40.076H24.633L44.96,17.308ZM25.353,87.8a4.463,4.463,0,0,1-4.348,4.545A4.463,4.463,0,0,1,16.657,87.8V60.531a4.463,4.463,0,0,1,4.348-4.545,4.463,4.463,0,0,1,4.348,4.545Zm19.565,0a4.352,4.352,0,1,1-8.7,0V60.531a4.352,4.352,0,1,1,8.7,0Zm21.739,0a4.352,4.352,0,1,1-8.7,0V60.531a4.352,4.352,0,1,1,8.7,0Zm19.565,0a4.352,4.352,0,1,1-8.7,0V60.531a4.352,4.352,0,1,1,8.7,0Z" transform="translate(-1.44 -1.44)" fill="url(#a)"/></svg>