<svg xmlns="http://www.w3.org/2000/svg" width="40" height="33.251" viewBox="0 0 40 33.251"><path d="M39.1,7.7,34.881.974A2.079,2.079,0,0,0,33.121,0H6.884a2.079,2.079,0,0,0-1.76.974L.91,7.7c-2.176,3.474-.247,8.306,3.819,8.858a6.749,6.749,0,0,0,.89.058,6.413,6.413,0,0,0,4.793-2.15,6.418,6.418,0,0,0,9.586,0,6.418,6.418,0,0,0,9.586,0,6.434,6.434,0,0,0,4.793,2.15,6.676,6.676,0,0,0,.89-.058C39.343,16.015,41.278,11.183,39.1,7.7Zm-4.708,11a8.24,8.24,0,0,1-1.916-.247v6.481H7.534V18.457a8.6,8.6,0,0,1-1.916.247,8.763,8.763,0,0,1-1.169-.078,8.167,8.167,0,0,1-1.065-.234V31.173a2.076,2.076,0,0,0,2.078,2.078H34.556a2.076,2.076,0,0,0,2.078-2.078V18.392a6.631,6.631,0,0,1-1.065.234A9.032,9.032,0,0,1,34.388,18.7Z" transform="translate(-0.004)" fill="#8b8b8b"/></svg>